# xmcd CD database file
#
# Track frame offsets:
#	150
#	14140
#	26075
#	36980
#	47075
#	67040
#	76312
#	94065
#	113932
#	132145
#
# Disc length: 2114 seconds
#
# Revision: 0
# Processed by: cddbd v1.5.1PL0 Copyright (c) Steve Scherf et al.
# Submitted via: CDex 1.51
#
DISCID=8808400a
DTITLE=雅〜miyavi〜 - 【雅楽】-gagaku-
DYEAR=2002
DGENRE=Rock
TTITLE0=二十歳記念日
TTITLE1=コインロッカーズベイビー
TTITLE2=腐れ外道へ。
TTITLE3=Night in girl
TTITLE4=Girls,be ambitious
TTITLE5=オレ様思考
TTITLE6=ガリ勉ロック
TTITLE7=♪の手紙“ONPU-NO-TEGAMI”
TTITLE8=植物人間Mのテーマ
TTITLE9=ボーナストラック
EXTD=YEAR: 2002
EXTT0=
EXTT1=
EXTT2=
EXTT3=
EXTT4=
EXTT5=
EXTT6=
EXTT7=
EXTT8=
EXTT9=
PLAYORDER=
